<svg xmlns="http://www.w3.org/2000/svg" xmlns:xlink="http://www.w3.org/1999/xlink" width="500" zoomAndPan="magnify" viewBox="0 0 375 374.999991" height="500" preserveAspectRatio="xMidYMid meet" version="1.0"><defs><filter x="0%" y="0%" width="100%" height="100%" id="b03de21e8e"><feColorMatrix values="0 0 0 0 1 0 0 0 0 1 0 0 0 0 1 0 0 0 1 0" color-interpolation-filters="sRGB"/></filter><mask id="503623e22d"><g filter="url(#b03de21e8e)"><rect x="-37.5" width="450" fill="#000000" y="-37.499999" height="449.999989" fill-opacity="0.5"/></g></mask><clipPath id="618431e65e"><path d="M 0.238281 3 L 266.640625 3 L 266.640625 270 L 0.238281 270 Z M 0.238281 3 " clip-rule="nonzero"/></clipPath><clipPath id="11d61b5b23"><rect x="0" width="267" y="0" height="275"/></clipPath></defs><g mask="url(#503623e22d)"><g transform="matrix(1, 0, 0, 1, 54, 50)"><g clip-path="url(#11d61b5b23)"><g clip-path="url(#618431e65e)"><path fill="#d4d4d4" d="M 150.027344 23.855469 C 152.082031 14.726562 146.347656 5.65625 137.21875 3.601562 C 128.089844 1.546875 119.023438 7.277344 116.964844 16.410156 C 109.425781 49.882812 99.664062 71.230469 84.941406 86.253906 C 70.257812 101.242188 48.738281 111.871094 13.582031 119.792969 C 4.453125 121.847656 -1.28125 130.917969 0.777344 140.046875 C 2.832031 149.175781 11.902344 154.910156 21.03125 152.851562 C 59.257812 144.242188 87.996094 131.558594 109.148438 109.972656 C 130.257812 88.425781 141.898438 59.945312 150.027344 23.855469 Z M 253.40625 152.851562 C 262.535156 150.792969 268.269531 141.726562 266.214844 132.597656 C 264.15625 123.46875 255.089844 117.734375 245.960938 119.789062 C 209.871094 127.917969 181.386719 139.558594 159.84375 160.671875 C 138.257812 181.820312 125.574219 210.558594 116.964844 248.785156 C 114.90625 257.917969 120.640625 266.984375 129.769531 269.039062 C 138.898438 271.097656 147.964844 265.363281 150.023438 256.234375 C 157.941406 221.078125 168.574219 199.558594 183.558594 184.878906 C 198.585938 170.15625 219.933594 160.390625 253.40625 152.851562 Z M 253.40625 152.851562 " fill-opacity="1" fill-rule="evenodd"/></g></g></g></g><path fill="#d4d4d4" d="M 204.023438 66.410156 C 201.964844 57.277344 192.898438 51.546875 183.769531 53.601562 C 174.640625 55.65625 168.90625 64.726562 170.964844 73.855469 C 179.09375 109.945312 190.730469 138.425781 211.84375 159.972656 C 232.992188 181.558594 261.734375 194.242188 299.960938 202.851562 C 309.089844 204.910156 318.15625 199.175781 320.214844 190.046875 C 322.269531 180.917969 316.535156 171.847656 307.40625 169.792969 C 272.25 161.871094 250.730469 151.242188 236.050781 136.253906 C 221.328125 121.230469 211.5625 99.882812 204.023438 66.410156 Z M 75.03125 169.789062 C 65.902344 167.734375 56.832031 173.46875 54.777344 182.597656 C 52.71875 191.726562 58.453125 200.792969 67.582031 202.851562 C 102.738281 210.769531 124.257812 221.402344 138.941406 236.386719 C 153.664062 251.414062 163.425781 272.761719 170.964844 306.234375 C 173.023438 315.363281 182.089844 321.097656 191.21875 319.039062 C 200.347656 316.984375 206.082031 307.917969 204.027344 298.789062 C 195.898438 262.699219 184.257812 234.214844 163.148438 212.667969 C 141.996094 191.082031 113.257812 178.402344 75.03125 169.789062 Z M 75.03125 169.789062 " fill-opacity="1" fill-rule="evenodd"/></svg>